<?xml version="1.0" encoding="utf-8"?>
<svg xmlns="http://www.w3.org/2000/svg" width="1046.63" height="1046.63" viewBox="180.18 181.01 1046.63 1046.63">
<path fill="#000000" d="M 544.46,183.58 C 580.68,176.27 621.95,189.07 643.89,218.69 C 654.95,233.62 661.1,252.82 671.69,268.91 C 676.9,276.83 683.19,283.99 690.54,287.2 C 697.92,290.42 706.37,289.67 713.56,286.7 C 742.5,274.77 751.03,226.94 778.55,202.11 C 806.09,177.27 852.63,175.45 885.7,190.94 C 918.8,206.45 938.39,239.29 945.91,275.16 C 953.44,311.08 948.86,350.03 947.08,387.19 C 945.31,424.36 946.34,459.73 948.07,497.16 C 949.8,534.58 952.23,574.05 937.41,607.02 C 922.6,639.98 890.55,666.45 853.48,669.72 C 816.41,673 774.31,653.07 755.44,623.57 C 736.56,594.06 740.89,554.98 737,516.7 C 733.1,478.44 720.98,440.99 693.46,419.47 C 665.93,397.94 622.98,392.35 585.74,391.11 C 566.99,390.49 549.69,390.97 532.36,385.94 C 515.31,380.99 498.23,370.7 485.62,356.97 C 460.21,329.28 452.98,287.57 464.98,252.97 C 476.98,218.38 508.18,190.9 544.46,183.58 Z"/>
<path fill="#000000" d="M 1224.24,545.29 C 1231.55,581.51 1218.75,622.77 1189.13,644.72 C 1174.2,655.78 1154.99,661.93 1138.9,672.52 C 1130.99,677.73 1123.83,684.01 1120.62,691.37 C 1117.39,698.74 1118.15,707.2 1121.11,714.39 C 1133.05,743.33 1180.88,751.86 1205.7,779.38 C 1230.55,806.91 1232.36,853.46 1216.87,886.53 C 1201.37,919.63 1168.53,939.22 1132.66,946.74 C 1096.74,954.26 1057.79,949.69 1020.63,947.91 C 983.46,946.14 948.08,947.17 910.65,948.9 C 873.23,950.63 833.76,953.05 800.8,938.24 C 767.83,923.43 741.37,891.38 738.09,854.31 C 734.82,817.24 754.74,775.14 784.25,756.27 C 813.76,737.39 852.84,741.72 891.11,737.83 C 929.38,733.93 966.83,721.81 988.35,694.29 C 1009.88,666.75 1015.46,623.81 1016.7,586.57 C 1017.32,567.82 1016.85,550.52 1021.88,533.19 C 1026.83,516.14 1037.11,499.06 1050.85,486.45 C 1078.53,461.04 1120.24,453.81 1154.85,465.81 C 1189.43,477.8 1216.92,509.01 1224.24,545.29 Z"/>
<path fill="#000000" d="M 862.53,1225.06 C 826.31,1232.38 785.04,1219.58 763.1,1189.96 C 752.03,1175.03 745.88,1155.82 735.29,1139.73 C 730.08,1131.82 723.8,1124.66 716.45,1121.44 C 709.07,1118.22 700.62,1118.97 693.42,1121.94 C 664.48,1133.88 655.95,1181.7 628.44,1206.53 C 600.9,1231.38 554.35,1233.19 521.29,1217.7 C 488.19,1202.2 468.6,1169.36 461.08,1133.49 C 453.55,1097.57 458.13,1058.62 459.9,1021.46 C 461.68,984.29 460.65,948.91 458.92,911.48 C 457.19,874.06 454.76,834.59 469.58,801.63 C 484.39,768.66 516.44,742.2 553.5,738.92 C 590.58,735.65 632.67,755.57 651.55,785.08 C 670.43,814.58 666.1,853.67 669.99,891.94 C 673.88,930.21 686,967.66 713.53,989.18 C 741.06,1010.7 784.01,1016.29 821.25,1017.53 C 840,1018.15 857.3,1017.68 874.63,1022.71 C 891.68,1027.66 908.76,1037.94 921.36,1051.68 C 946.78,1079.36 954.01,1121.07 942.01,1155.67 C 930.01,1190.26 898.8,1217.74 862.53,1225.06 Z"/>
<path fill="#000000" d="M 182.75,863.36 C 175.44,827.14 188.24,785.87 217.86,763.92 C 232.79,752.86 251.99,746.71 268.08,736.12 C 276,730.91 283.16,724.63 286.37,717.27 C 289.59,709.9 288.84,701.45 285.87,694.25 C 273.94,665.31 226.11,656.78 201.28,629.27 C 176.44,601.73 174.63,555.18 190.11,522.12 C 205.62,489.02 238.46,469.42 274.33,461.91 C 310.25,454.38 349.2,458.96 386.36,460.73 C 423.53,462.51 458.91,461.48 496.33,459.75 C 533.75,458.02 573.22,455.59 606.19,470.4 C 639.15,485.22 665.62,517.27 668.89,554.33 C 672.17,591.41 652.24,633.5 622.74,652.38 C 593.23,671.26 554.15,666.92 515.87,670.82 C 477.61,674.71 440.16,686.83 418.64,714.36 C 397.11,741.89 391.53,784.84 390.29,822.08 C 389.66,840.82 390.14,858.12 385.11,875.45 C 380.16,892.51 369.87,909.59 356.14,922.19 C 328.45,947.61 286.74,954.84 252.14,942.84 C 217.56,930.84 190.07,899.63 182.75,863.36 Z"/>
</svg>
